<mxfile host="app.diagrams.net" modified="2020-09-13T18:25:38.262Z" agent="5.0 (Windows NT 10.0; Win64; x64) AppleWebKit/537.36 (KHTML, like Gecko) Chrome/81.0.4044.138 Safari/537.36 OPR/68.0.3618.206" etag="96E5eASjv52PnEh0zr_w" version="13.6.9" type="github">
  <diagram id="C5RBs43oDa-KdzZeNtuy" name="Page-1">
    <mxGraphModel dx="519" dy="334" grid="1" gridSize="10" guides="1" tooltips="1" connect="1" arrows="1" fold="1" page="1" pageScale="1" pageWidth="827" pageHeight="1169" math="0" shadow="0">
      <root>
        <mxCell id="WIyWlLk6GJQsqaUBKTNV-0" />
        <mxCell id="WIyWlLk6GJQsqaUBKTNV-1" parent="WIyWlLk6GJQsqaUBKTNV-0" />
        <mxCell id="lyNfoTk5zOAgH6TURZRj-0" style="edgeStyle=orthogonalEdgeStyle;rounded=0;orthogonalLoop=1;jettySize=auto;html=1;exitX=1;exitY=0.75;exitDx=0;exitDy=0;entryX=0.013;entryY=0.86;entryDx=0;entryDy=0;entryPerimeter=0;" edge="1" parent="WIyWlLk6GJQsqaUBKTNV-1" source="WIyWlLk6GJQsqaUBKTNV-3" target="lyNfoTk5zOAgH6TURZRj-1">
          <mxGeometry relative="1" as="geometry">
            <mxPoint x="660" y="100.09523809523807" as="targetPoint" />
            <Array as="points">
              <mxPoint x="494" y="114" />
              <mxPoint x="682" y="114" />
            </Array>
          </mxGeometry>
        </mxCell>
        <mxCell id="lyNfoTk5zOAgH6TURZRj-3" value="2x hold shift" style="edgeLabel;html=1;align=center;verticalAlign=middle;resizable=0;points=[];" vertex="1" connectable="0" parent="lyNfoTk5zOAgH6TURZRj-0">
          <mxGeometry x="-0.0815" relative="1" as="geometry">
            <mxPoint as="offset" />
          </mxGeometry>
        </mxCell>
        <mxCell id="lyNfoTk5zOAgH6TURZRj-6" style="edgeStyle=orthogonalEdgeStyle;rounded=0;orthogonalLoop=1;jettySize=auto;html=1;exitX=0;exitY=0.25;exitDx=0;exitDy=0;" edge="1" parent="WIyWlLk6GJQsqaUBKTNV-1" source="WIyWlLk6GJQsqaUBKTNV-3">
          <mxGeometry relative="1" as="geometry">
            <mxPoint x="240" y="90.09523809523807" as="targetPoint" />
          </mxGeometry>
        </mxCell>
        <mxCell id="lyNfoTk5zOAgH6TURZRj-7" value="CTRL" style="edgeLabel;html=1;align=center;verticalAlign=middle;resizable=0;points=[];" vertex="1" connectable="0" parent="lyNfoTk5zOAgH6TURZRj-6">
          <mxGeometry x="0.1676" y="-1" relative="1" as="geometry">
            <mxPoint x="14" as="offset" />
          </mxGeometry>
        </mxCell>
        <mxCell id="WIyWlLk6GJQsqaUBKTNV-3" value="Running" style="rounded=1;whiteSpace=wrap;html=1;fontSize=12;glass=0;strokeWidth=1;shadow=0;" parent="WIyWlLk6GJQsqaUBKTNV-1" vertex="1">
          <mxGeometry x="374" y="80" width="120" height="40" as="geometry" />
        </mxCell>
        <mxCell id="K9Rb511Cw-FfESZgHAMe-6" style="edgeStyle=orthogonalEdgeStyle;rounded=0;orthogonalLoop=1;jettySize=auto;html=1;" parent="WIyWlLk6GJQsqaUBKTNV-1" source="WIyWlLk6GJQsqaUBKTNV-7" target="WIyWlLk6GJQsqaUBKTNV-3" edge="1">
          <mxGeometry relative="1" as="geometry">
            <Array as="points">
              <mxPoint x="270" y="110" />
              <mxPoint x="270" y="110" />
            </Array>
          </mxGeometry>
        </mxCell>
        <mxCell id="lyNfoTk5zOAgH6TURZRj-2" value="Press Shift" style="edgeLabel;html=1;align=center;verticalAlign=middle;resizable=0;points=[];" vertex="1" connectable="0" parent="K9Rb511Cw-FfESZgHAMe-6">
          <mxGeometry x="0.0959" y="-1" relative="1" as="geometry">
            <mxPoint as="offset" />
          </mxGeometry>
        </mxCell>
        <mxCell id="lyNfoTk5zOAgH6TURZRj-18" style="edgeStyle=orthogonalEdgeStyle;rounded=0;orthogonalLoop=1;jettySize=auto;html=1;exitX=0.25;exitY=1;exitDx=0;exitDy=0;entryX=0.25;entryY=0;entryDx=0;entryDy=0;" edge="1" parent="WIyWlLk6GJQsqaUBKTNV-1" source="WIyWlLk6GJQsqaUBKTNV-7" target="lyNfoTk5zOAgH6TURZRj-17">
          <mxGeometry relative="1" as="geometry" />
        </mxCell>
        <mxCell id="lyNfoTk5zOAgH6TURZRj-20" value="Press&lt;br&gt;C" style="edgeLabel;html=1;align=center;verticalAlign=middle;resizable=0;points=[];" vertex="1" connectable="0" parent="lyNfoTk5zOAgH6TURZRj-18">
          <mxGeometry x="-0.16" y="1" relative="1" as="geometry">
            <mxPoint y="6.4" as="offset" />
          </mxGeometry>
        </mxCell>
        <mxCell id="WIyWlLk6GJQsqaUBKTNV-7" value="Walking&lt;br&gt;" style="rounded=1;whiteSpace=wrap;html=1;fontSize=12;glass=0;strokeWidth=1;shadow=0;arcSize=0;" parent="WIyWlLk6GJQsqaUBKTNV-1" vertex="1">
          <mxGeometry x="170" y="80" width="70" height="40" as="geometry" />
        </mxCell>
        <mxCell id="lyNfoTk5zOAgH6TURZRj-4" style="edgeStyle=orthogonalEdgeStyle;rounded=0;orthogonalLoop=1;jettySize=auto;html=1;exitX=0;exitY=0.25;exitDx=0;exitDy=0;entryX=1;entryY=0.25;entryDx=0;entryDy=0;" edge="1" parent="WIyWlLk6GJQsqaUBKTNV-1" source="lyNfoTk5zOAgH6TURZRj-1" target="WIyWlLk6GJQsqaUBKTNV-3">
          <mxGeometry relative="1" as="geometry" />
        </mxCell>
        <mxCell id="lyNfoTk5zOAgH6TURZRj-5" value="Release shift" style="edgeLabel;html=1;align=center;verticalAlign=middle;resizable=0;points=[];" vertex="1" connectable="0" parent="lyNfoTk5zOAgH6TURZRj-4">
          <mxGeometry x="0.1818" y="1" relative="1" as="geometry">
            <mxPoint x="10" as="offset" />
          </mxGeometry>
        </mxCell>
        <mxCell id="lyNfoTk5zOAgH6TURZRj-1" value="Sprinting" style="rounded=1;whiteSpace=wrap;html=1;" vertex="1" parent="WIyWlLk6GJQsqaUBKTNV-1">
          <mxGeometry x="680" y="80" width="120" height="40" as="geometry" />
        </mxCell>
        <mxCell id="lyNfoTk5zOAgH6TURZRj-19" style="edgeStyle=orthogonalEdgeStyle;rounded=0;orthogonalLoop=1;jettySize=auto;html=1;exitX=0.75;exitY=0;exitDx=0;exitDy=0;entryX=0.75;entryY=1;entryDx=0;entryDy=0;" edge="1" parent="WIyWlLk6GJQsqaUBKTNV-1" source="lyNfoTk5zOAgH6TURZRj-17" target="WIyWlLk6GJQsqaUBKTNV-7">
          <mxGeometry relative="1" as="geometry" />
        </mxCell>
        <mxCell id="lyNfoTk5zOAgH6TURZRj-21" value="Press&lt;br&gt;C" style="edgeLabel;html=1;align=center;verticalAlign=middle;resizable=0;points=[];" vertex="1" connectable="0" parent="lyNfoTk5zOAgH6TURZRj-19">
          <mxGeometry x="0.16" relative="1" as="geometry">
            <mxPoint y="6.4" as="offset" />
          </mxGeometry>
        </mxCell>
        <mxCell id="lyNfoTk5zOAgH6TURZRj-24" style="edgeStyle=orthogonalEdgeStyle;rounded=0;orthogonalLoop=1;jettySize=auto;html=1;exitX=1;exitY=0.25;exitDx=0;exitDy=0;entryX=0;entryY=0.25;entryDx=0;entryDy=0;" edge="1" parent="WIyWlLk6GJQsqaUBKTNV-1" source="lyNfoTk5zOAgH6TURZRj-17" target="lyNfoTk5zOAgH6TURZRj-23">
          <mxGeometry relative="1" as="geometry" />
        </mxCell>
        <mxCell id="lyNfoTk5zOAgH6TURZRj-25" value="Hold Shift" style="edgeLabel;html=1;align=center;verticalAlign=middle;resizable=0;points=[];" vertex="1" connectable="0" parent="lyNfoTk5zOAgH6TURZRj-24">
          <mxGeometry x="-0.1457" relative="1" as="geometry">
            <mxPoint x="10" as="offset" />
          </mxGeometry>
        </mxCell>
        <mxCell id="lyNfoTk5zOAgH6TURZRj-17" value="Crouched" style="rounded=1;whiteSpace=wrap;html=1;" vertex="1" parent="WIyWlLk6GJQsqaUBKTNV-1">
          <mxGeometry x="170" y="200" width="70" height="40" as="geometry" />
        </mxCell>
        <mxCell id="lyNfoTk5zOAgH6TURZRj-26" style="edgeStyle=orthogonalEdgeStyle;rounded=0;orthogonalLoop=1;jettySize=auto;html=1;exitX=0;exitY=0.75;exitDx=0;exitDy=0;entryX=1;entryY=0.75;entryDx=0;entryDy=0;" edge="1" parent="WIyWlLk6GJQsqaUBKTNV-1" source="lyNfoTk5zOAgH6TURZRj-23" target="lyNfoTk5zOAgH6TURZRj-17">
          <mxGeometry relative="1" as="geometry" />
        </mxCell>
        <mxCell id="lyNfoTk5zOAgH6TURZRj-27" value="Release Shift" style="edgeLabel;html=1;align=center;verticalAlign=middle;resizable=0;points=[];" vertex="1" connectable="0" parent="lyNfoTk5zOAgH6TURZRj-26">
          <mxGeometry x="0.2029" y="-1" relative="1" as="geometry">
            <mxPoint x="14.4" as="offset" />
          </mxGeometry>
        </mxCell>
        <mxCell id="lyNfoTk5zOAgH6TURZRj-23" value="Fast Crouched&amp;nbsp;&lt;br&gt;Walking" style="rounded=1;whiteSpace=wrap;html=1;" vertex="1" parent="WIyWlLk6GJQsqaUBKTNV-1">
          <mxGeometry x="380" y="200" width="114" height="40" as="geometry" />
        </mxCell>
      </root>
    </mxGraphModel>
  </diagram>
</mxfile>
